<svg width="20" height="20" viewBox="0 0 20 20" fill="none" xmlns="http://www.w3.org/2000/svg">
<path fill-rule="evenodd" clip-rule="evenodd" d="M7 3C7.27614 3 7.5 3.22386 7.5 3.5V4H12.5V3.5C12.5 3.22386 12.7239 3 13 3C13.2761 3 13.5 3.22386 13.5 3.5V4H15C16.1046 4 17 4.89543 17 6V8V9V16C17 17.1046 16.1046 18 15 18H5C3.89543 18 3 17.1046 3 16V9V8V6C3 4.89543 3.89543 4 5 4H6.5V3.5C6.5 3.22386 6.72386 3 7 3ZM12.5 5V5.5C12.5 5.77614 12.7239 6 13 6C13.2761 6 13.5 5.77614 13.5 5.5V5H15C15.5523 5 16 5.44772 16 6V8H4V6C4 5.44772 4.44772 5 5 5H6.5V5.5C6.5 5.77614 6.72386 6 7 6C7.27614 6 7.5 5.77614 7.5 5.5V5H12.5ZM16 9V16C16 16.5523 15.5523 17 15 17H5C4.44772 17 4 16.5523 4 16V9H16Z" fill="black"/>
</svg>
