<svg width="20" height="20" viewBox="0 0 20 20" fill="none" xmlns="http://www.w3.org/2000/svg">
<g opacity="0.7">
<path fill-rule="evenodd" clip-rule="evenodd" d="M11.1039 5.05543C10.9086 4.86017 10.592 4.86017 10.3968 5.05543C10.2015 5.25069 10.2015 5.56728 10.3968 5.76254L14.5887 9.95449L10.3968 14.1464C10.2015 14.3417 10.2015 14.6583 10.3968 14.8536C10.592 15.0488 10.9086 15.0488 11.1039 14.8536L15.6467 10.3107C15.8419 10.1156 15.8419 9.79914 15.6469 9.60384L11.1039 5.05543ZM6.1038 5.05539C5.90854 4.86012 5.59195 4.86012 5.39669 5.05538C5.20143 5.25065 5.20143 5.56723 5.39669 5.76249L9.58865 9.95445L5.39669 14.1464C5.20143 14.3417 5.20143 14.6582 5.39669 14.8535C5.59195 15.0488 5.90854 15.0488 6.1038 14.8535L10.6466 10.3107C10.8418 10.1155 10.8419 9.79909 10.6468 9.6038L6.1038 5.05539Z" fill="black"/>
</g>
</svg>
