<svg width="20" height="20" viewBox="0 0 20 20" fill="none" xmlns="http://www.w3.org/2000/svg">
<path fill-rule="evenodd" clip-rule="evenodd" d="M14 5C14 5.55228 13.5523 6 13 6C12.4477 6 12 5.55228 12 5C12 4.44772 12.4477 4 13 4C13.5523 4 14 4.44772 14 5ZM11.063 4.5H3.5C3.22386 4.5 3 4.72386 3 5C3 5.27614 3.22386 5.5 3.5 5.5H11.063C11.285 6.36261 12.0681 7 13 7C13.9319 7 14.715 6.36261 14.937 5.5H16.5C16.7761 5.5 17 5.27614 17 5C17 4.72386 16.7761 4.5 16.5 4.5H14.937C14.715 3.63739 13.9319 3 13 3C12.0681 3 11.285 3.63739 11.063 4.5Z" fill="black"/>
<path fill-rule="evenodd" clip-rule="evenodd" d="M8 9.5C8 10.0523 7.55228 10.5 7 10.5C6.44772 10.5 6 10.0523 6 9.5C6 8.94772 6.44772 8.5 7 8.5C7.55228 8.5 8 8.94772 8 9.5ZM8.93699 10H16.5C16.7761 10 17 9.77614 17 9.5C17 9.22386 16.7761 9 16.5 9H8.93699C8.71497 8.13739 7.93192 7.5 7 7.5C6.06808 7.5 5.28503 8.13739 5.06301 9H3.5C3.22386 9 3 9.22386 3 9.5C3 9.77614 3.22386 10 3.5 10H5.06301C5.28503 10.8626 6.06808 11.5 7 11.5C7.93192 11.5 8.71497 10.8626 8.93699 10Z" fill="black"/>
<path fill-rule="evenodd" clip-rule="evenodd" d="M12 14.5C12 15.0523 11.5523 15.5 11 15.5C10.4477 15.5 10 15.0523 10 14.5C10 13.9477 10.4477 13.5 11 13.5C11.5523 13.5 12 13.9477 12 14.5ZM9.06301 15C9.28503 15.8626 10.0681 16.5 11 16.5C11.9319 16.5 12.715 15.8626 12.937 15H16.5C16.7761 15 17 14.7761 17 14.5C17 14.2239 16.7761 14 16.5 14H12.937C12.715 13.1374 11.9319 12.5 11 12.5C10.0681 12.5 9.28503 13.1374 9.06301 14L3.5 14C3.22386 14 3 14.2239 3 14.5C3 14.7761 3.22386 15 3.5 15L9.06301 15Z" fill="black"/>
</svg>
