<svg width="20" height="20" viewBox="0 0 20 20" fill="none" xmlns="http://www.w3.org/2000/svg">
<path fill-rule="evenodd" clip-rule="evenodd" d="M5 4H15C15.5523 4 16 4.44772 16 5V15C16 15.5523 15.5523 16 15 16H5C4.44772 16 4 15.5523 4 15V5C4 4.44772 4.44772 4 5 4ZM3 5C3 3.89543 3.89543 3 5 3H15C16.1046 3 17 3.89543 17 5V15C17 16.1046 16.1046 17 15 17H5C3.89543 17 3 16.1046 3 15V5ZM6 11C6.55228 11 7 10.5523 7 10C7 9.44772 6.55228 9 6 9C5.44772 9 5 9.44772 5 10C5 10.5523 5.44772 11 6 11ZM10 11C10.5523 11 11 10.5523 11 10C11 9.44772 10.5523 9 10 9C9.44772 9 9 9.44772 9 10C9 10.5523 9.44772 11 10 11ZM15 10C15 10.5523 14.5523 11 14 11C13.4477 11 13 10.5523 13 10C13 9.44772 13.4477 9 14 9C14.5523 9 15 9.44772 15 10Z" fill="black"/>
</svg>
